<?xml version="1.0" encoding="UTF-8"?>
<svg xmlns="http://www.w3.org/2000/svg" xmlns:xlink="http://www.w3.org/1999/xlink" width="810pt" height="809.999993pt" viewBox="0 0 810 809.999993" version="1.2">
<g id="surface1">
<path style=" stroke:none;fill-rule:nonzero;fill:rgb(95.689392%,1.179504%,38.038635%);fill-opacity:1;" d="M 624.375 104.167969 C 567 50.203125 489.984375 16.875 405 16.875 C 320.015625 16.875 243 50.203125 185.625 104.167969 L 185.625 151.875 L 405 463.777344 L 624.375 151.875 Z M 624.375 104.167969 "/>
<path style=" stroke:none;fill-rule:nonzero;fill:rgb(56.469727%,64.309692%,68.238831%);fill-opacity:1;" d="M 286.875 793.125 L 337.5 793.125 L 337.5 489.375 L 185.625 489.375 Z M 286.875 793.125 "/>
<path style=" stroke:none;fill-rule:nonzero;fill:rgb(56.469727%,64.309692%,68.238831%);fill-opacity:1;" d="M 523.125 793.125 L 472.5 793.125 L 472.5 489.375 L 624.375 489.375 Z M 523.125 793.125 "/>
<path style=" stroke:none;fill-rule:nonzero;fill:rgb(69.018555%,74.508667%,77.249146%);fill-opacity:1;" d="M 691.875 337.5 C 691.875 342.195312 691.761719 346.886719 691.53125 351.578125 C 691.300781 356.265625 690.953125 360.945312 690.492188 365.617188 C 690.035156 370.289062 689.457031 374.949219 688.769531 379.59375 C 688.082031 384.238281 687.277344 388.863281 686.363281 393.464844 C 685.445312 398.070312 684.417969 402.652344 683.277344 407.203125 C 682.136719 411.757812 680.886719 416.28125 679.523438 420.773438 C 678.160156 425.269531 676.6875 429.726562 675.105469 434.144531 C 673.523438 438.566406 671.835938 442.945312 670.039062 447.28125 C 668.242188 451.621094 666.339844 455.910156 664.332031 460.15625 C 662.324219 464.398438 660.214844 468.589844 658 472.730469 C 655.789062 476.871094 653.472656 480.957031 651.0625 484.984375 C 648.648438 489.011719 646.136719 492.976562 643.527344 496.878906 C 640.917969 500.78125 638.21875 504.621094 635.421875 508.390625 C 632.625 512.164062 629.734375 515.863281 626.757812 519.492188 C 623.777344 523.121094 620.714844 526.675781 617.558594 530.152344 C 614.40625 533.632812 611.171875 537.03125 607.851562 540.351562 C 604.53125 543.671875 601.132812 546.90625 597.652344 550.058594 C 594.175781 553.214844 590.621094 556.277344 586.992188 559.257812 C 583.363281 562.234375 579.664062 565.125 575.890625 567.921875 C 572.121094 570.714844 568.28125 573.417969 564.378906 576.027344 C 560.476562 578.636719 556.511719 581.148438 552.484375 583.5625 C 548.457031 585.972656 544.371094 588.289062 540.230469 590.5 C 536.089844 592.714844 531.898438 594.824219 527.65625 596.832031 C 523.410156 598.839844 519.121094 600.742188 514.78125 602.539062 C 510.445312 604.335938 506.066406 606.023438 501.644531 607.605469 C 497.226562 609.1875 492.769531 610.660156 488.273438 612.023438 C 483.78125 613.386719 479.257812 614.636719 474.703125 615.777344 C 470.152344 616.917969 465.570312 617.945312 460.964844 618.863281 C 456.363281 619.777344 451.738281 620.582031 447.09375 621.269531 C 442.449219 621.957031 437.789062 622.535156 433.117188 622.992188 C 428.445312 623.453125 423.765625 623.800781 419.078125 624.03125 C 414.386719 624.261719 409.695312 624.375 405 624.375 C 400.304688 624.375 395.613281 624.261719 390.921875 624.03125 C 386.234375 623.800781 381.554688 623.453125 376.882812 622.992188 C 372.207031 622.535156 367.550781 621.957031 362.90625 621.269531 C 358.261719 620.582031 353.636719 619.777344 349.035156 618.863281 C 344.429688 617.945312 339.847656 616.917969 335.296875 615.777344 C 330.742188 614.636719 326.21875 613.386719 321.722656 612.023438 C 317.230469 610.660156 312.773438 609.1875 308.355469 607.605469 C 303.933594 606.023438 299.554688 604.335938 295.21875 602.539062 C 290.878906 600.742188 286.589844 598.839844 282.34375 596.832031 C 278.101562 594.824219 273.910156 592.714844 269.769531 590.5 C 265.628906 588.289062 261.542969 585.972656 257.515625 583.5625 C 253.488281 581.148438 249.523438 578.636719 245.621094 576.027344 C 241.71875 573.417969 237.878906 570.714844 234.109375 567.921875 C 230.335938 565.125 226.636719 562.234375 223.007812 559.257812 C 219.378906 556.277344 215.824219 553.214844 212.347656 550.058594 C 208.867188 546.90625 205.46875 543.671875 202.148438 540.351562 C 198.828125 537.03125 195.59375 533.632812 192.441406 530.152344 C 189.285156 526.675781 186.222656 523.121094 183.242188 519.492188 C 180.265625 515.863281 177.375 512.164062 174.578125 508.390625 C 171.78125 504.621094 169.082031 500.78125 166.472656 496.878906 C 163.863281 492.976562 161.351562 489.011719 158.9375 484.984375 C 156.527344 480.957031 154.210938 476.871094 152 472.730469 C 149.785156 468.589844 147.675781 464.398438 145.667969 460.15625 C 143.660156 455.910156 141.757812 451.621094 139.960938 447.28125 C 138.164062 442.945312 136.476562 438.566406 134.894531 434.144531 C 133.3125 429.726562 131.839844 425.269531 130.476562 420.777344 C 129.113281 416.28125 127.863281 411.757812 126.722656 407.203125 C 125.582031 402.652344 124.554688 398.070312 123.636719 393.464844 C 122.722656 388.863281 121.917969 384.238281 121.230469 379.59375 C 120.542969 374.949219 119.964844 370.289062 119.507812 365.617188 C 119.046875 360.945312 118.699219 356.265625 118.46875 351.578125 C 118.238281 346.886719 118.125 342.195312 118.125 337.5 C 118.125 332.804688 118.238281 328.113281 118.46875 323.421875 C 118.699219 318.734375 119.046875 314.054688 119.507812 309.382812 C 119.964844 304.710938 120.542969 300.050781 121.230469 295.40625 C 121.917969 290.761719 122.722656 286.136719 123.636719 281.535156 C 124.554688 276.929688 125.582031 272.347656 126.722656 267.796875 C 127.863281 263.242188 129.113281 258.71875 130.476562 254.222656 C 131.839844 249.730469 133.3125 245.273438 134.894531 240.855469 C 136.476562 236.433594 138.164062 232.054688 139.960938 227.71875 C 141.757812 223.378906 143.660156 219.089844 145.667969 214.84375 C 147.675781 210.601562 149.785156 206.410156 152 202.269531 C 154.210938 198.128906 156.527344 194.042969 158.9375 190.015625 C 161.351562 185.988281 163.863281 182.023438 166.472656 178.121094 C 169.082031 174.21875 171.78125 170.378906 174.578125 166.609375 C 177.375 162.835938 180.265625 159.136719 183.242188 155.507812 C 186.222656 151.878906 189.285156 148.324219 192.441406 144.847656 C 195.59375 141.367188 198.828125 137.96875 202.148438 134.648438 C 205.46875 131.328125 208.867188 128.09375 212.347656 124.941406 C 215.824219 121.785156 219.378906 118.722656 223.007812 115.742188 C 226.636719 112.765625 230.335938 109.875 234.109375 107.078125 C 237.878906 104.28125 241.71875 101.582031 245.621094 98.972656 C 249.523438 96.363281 253.488281 93.851562 257.515625 91.4375 C 261.542969 89.027344 265.628906 86.710938 269.769531 84.5 C 273.910156 82.285156 278.101562 80.175781 282.34375 78.167969 C 286.589844 76.160156 290.878906 74.257812 295.21875 72.460938 C 299.554688 70.664062 303.933594 68.976562 308.355469 67.394531 C 312.773438 65.8125 317.230469 64.339844 321.722656 62.976562 C 326.21875 61.613281 330.742188 60.363281 335.296875 59.222656 C 339.847656 58.082031 344.429688 57.054688 349.035156 56.136719 C 353.636719 55.222656 358.261719 54.417969 362.90625 53.730469 C 367.550781 53.042969 372.207031 52.464844 376.882812 52.007812 C 381.554688 51.546875 386.234375 51.199219 390.921875 50.96875 C 395.613281 50.738281 400.304688 50.625 405 50.625 C 409.695312 50.625 414.386719 50.738281 419.078125 50.96875 C 423.765625 51.199219 428.445312 51.546875 433.117188 52.007812 C 437.789062 52.464844 442.449219 53.042969 447.09375 53.730469 C 451.738281 54.417969 456.363281 55.222656 460.964844 56.136719 C 465.570312 57.054688 470.152344 58.082031 474.703125 59.222656 C 479.257812 60.363281 483.78125 61.613281 488.273438 62.976562 C 492.769531 64.339844 497.226562 65.8125 501.644531 67.394531 C 506.066406 68.976562 510.445312 70.664062 514.78125 72.460938 C 519.121094 74.257812 523.410156 76.160156 527.65625 78.167969 C 531.898438 80.175781 536.089844 82.285156 540.230469 84.5 C 544.371094 86.710938 548.457031 89.027344 552.484375 91.4375 C 556.511719 93.851562 560.476562 96.363281 564.378906 98.972656 C 568.28125 101.582031 572.121094 104.28125 575.890625 107.078125 C 579.664062 109.875 583.363281 112.765625 586.992188 115.742188 C 590.621094 118.722656 594.175781 121.785156 597.652344 124.941406 C 601.132812 128.09375 604.53125 131.328125 607.851562 134.648438 C 611.171875 137.96875 614.40625 141.367188 617.558594 144.847656 C 620.714844 148.324219 623.777344 151.878906 626.757812 155.507812 C 629.734375 159.136719 632.625 162.835938 635.421875 166.609375 C 638.21875 170.378906 640.917969 174.21875 643.527344 178.121094 C 646.136719 182.023438 648.648438 185.988281 651.0625 190.015625 C 653.472656 194.042969 655.789062 198.128906 658 202.269531 C 660.214844 206.410156 662.324219 210.601562 664.332031 214.84375 C 666.339844 219.089844 668.242188 223.378906 670.039062 227.71875 C 671.835938 232.054688 673.523438 236.433594 675.105469 240.855469 C 676.6875 245.273438 678.160156 249.730469 679.523438 254.222656 C 680.886719 258.71875 682.136719 263.242188 683.277344 267.796875 C 684.417969 272.347656 685.445312 276.929688 686.363281 281.535156 C 687.277344 286.136719 688.082031 290.761719 688.769531 295.40625 C 689.457031 300.050781 690.035156 304.710938 690.492188 309.382812 C 690.953125 314.054688 691.300781 318.734375 691.53125 323.421875 C 691.761719 328.113281 691.875 332.804688 691.875 337.5 Z M 691.875 337.5 "/>
<path style=" stroke:none;fill-rule:nonzero;fill:rgb(56.469727%,64.309692%,68.238831%);fill-opacity:1;" d="M 658.125 337.5 C 658.125 341.640625 658.023438 345.78125 657.820312 349.921875 C 657.617188 354.058594 657.3125 358.1875 656.90625 362.3125 C 656.5 366.433594 655.992188 370.542969 655.386719 374.640625 C 654.777344 378.738281 654.070312 382.820312 653.261719 386.882812 C 652.453125 390.945312 651.546875 394.984375 650.539062 399.003906 C 649.53125 403.023438 648.429688 407.015625 647.226562 410.976562 C 646.023438 414.941406 644.722656 418.875 643.328125 422.773438 C 641.933594 426.675781 640.441406 430.539062 638.855469 434.367188 C 637.273438 438.195312 635.59375 441.980469 633.820312 445.726562 C 632.050781 449.46875 630.1875 453.167969 628.234375 456.820312 C 626.285156 460.476562 624.242188 464.078125 622.113281 467.632812 C 619.984375 471.183594 617.765625 474.683594 615.464844 478.128906 C 613.164062 481.574219 610.78125 484.957031 608.3125 488.285156 C 605.84375 491.613281 603.296875 494.878906 600.667969 498.082031 C 598.039062 501.28125 595.335938 504.417969 592.554688 507.488281 C 589.769531 510.558594 586.914062 513.558594 583.984375 516.488281 C 581.058594 519.414062 578.058594 522.269531 574.988281 525.054688 C 571.917969 527.835938 568.78125 530.539062 565.582031 533.167969 C 562.378906 535.796875 559.113281 538.34375 555.785156 540.8125 C 552.460938 543.28125 549.074219 545.664062 545.628906 547.964844 C 542.183594 550.265625 538.683594 552.484375 535.132812 554.613281 C 531.578125 556.742188 527.976562 558.785156 524.320312 560.734375 C 520.667969 562.6875 516.96875 564.550781 513.226562 566.320312 C 509.480469 568.09375 505.695312 569.773438 501.867188 571.355469 C 498.039062 572.941406 494.175781 574.433594 490.273438 575.828125 C 486.375 577.222656 482.441406 578.523438 478.476562 579.726562 C 474.515625 580.929688 470.523438 582.03125 466.503906 583.039062 C 462.484375 584.046875 458.445312 584.953125 454.382812 585.761719 C 450.320312 586.570312 446.238281 587.277344 442.140625 587.886719 C 438.042969 588.492188 433.933594 589 429.8125 589.40625 C 425.6875 589.8125 421.558594 590.117188 417.421875 590.320312 C 413.28125 590.523438 409.140625 590.625 405 590.625 C 400.859375 590.625 396.71875 590.523438 392.578125 590.320312 C 388.441406 590.117188 384.3125 589.8125 380.1875 589.40625 C 376.066406 589 371.957031 588.492188 367.859375 587.886719 C 363.761719 587.277344 359.679688 586.570312 355.617188 585.761719 C 351.554688 584.953125 347.515625 584.046875 343.496094 583.039062 C 339.476562 582.03125 335.484375 580.929688 331.523438 579.726562 C 327.558594 578.523438 323.625 577.222656 319.726562 575.828125 C 315.824219 574.433594 311.960938 572.941406 308.132812 571.355469 C 304.304688 569.773438 300.519531 568.09375 296.773438 566.320312 C 293.03125 564.550781 289.332031 562.6875 285.675781 560.734375 C 282.023438 558.785156 278.421875 556.742188 274.867188 554.613281 C 271.316406 552.484375 267.816406 550.265625 264.371094 547.964844 C 260.925781 545.664062 257.539062 543.28125 254.214844 540.8125 C 250.886719 538.34375 247.621094 535.796875 244.417969 533.167969 C 241.21875 530.539062 238.082031 527.835938 235.011719 525.054688 C 231.941406 522.269531 228.941406 519.414062 226.011719 516.488281 C 223.085938 513.558594 220.230469 510.558594 217.445312 507.488281 C 214.664062 504.417969 211.960938 501.28125 209.332031 498.082031 C 206.703125 494.878906 204.15625 491.613281 201.6875 488.285156 C 199.21875 484.957031 196.835938 481.574219 194.535156 478.128906 C 192.234375 474.683594 190.015625 471.183594 187.886719 467.632812 C 185.757812 464.078125 183.714844 460.476562 181.765625 456.820312 C 179.8125 453.167969 177.949219 449.46875 176.175781 445.726562 C 174.40625 441.980469 172.726562 438.195312 171.144531 434.367188 C 169.558594 430.539062 168.066406 426.675781 166.671875 422.773438 C 165.277344 418.875 163.976562 414.941406 162.773438 410.976562 C 161.570312 407.015625 160.46875 403.023438 159.460938 399.003906 C 158.453125 394.984375 157.546875 390.945312 156.738281 386.882812 C 155.929688 382.820312 155.222656 378.738281 154.613281 374.640625 C 154.007812 370.542969 153.5 366.433594 153.09375 362.3125 C 152.6875 358.1875 152.382812 354.058594 152.179688 349.921875 C 151.976562 345.78125 151.875 341.640625 151.875 337.5 C 151.875 333.359375 151.976562 329.21875 152.179688 325.078125 C 152.382812 320.941406 152.6875 316.8125 153.09375 312.6875 C 153.5 308.566406 154.007812 304.457031 154.613281 300.359375 C 155.222656 296.261719 155.929688 292.179688 156.738281 288.117188 C 157.546875 284.054688 158.453125 280.015625 159.460938 275.996094 C 160.46875 271.976562 161.570312 267.984375 162.773438 264.023438 C 163.976562 260.058594 165.277344 256.125 166.671875 252.226562 C 168.066406 248.324219 169.558594 244.460938 171.144531 240.632812 C 172.726562 236.804688 174.40625 233.019531 176.175781 229.273438 C 177.949219 225.53125 179.8125 221.832031 181.761719 218.175781 C 183.714844 214.523438 185.757812 210.921875 187.886719 207.367188 C 190.015625 203.816406 192.234375 200.316406 194.535156 196.871094 C 196.835938 193.425781 199.21875 190.039062 201.6875 186.714844 C 204.15625 183.386719 206.703125 180.121094 209.332031 176.917969 C 211.960938 173.71875 214.664062 170.582031 217.445312 167.511719 C 220.230469 164.441406 223.085938 161.441406 226.011719 158.511719 C 228.941406 155.585938 231.941406 152.730469 235.011719 149.945312 C 238.082031 147.164062 241.21875 144.460938 244.417969 141.832031 C 247.621094 139.203125 250.886719 136.65625 254.214844 134.1875 C 257.539062 131.71875 260.925781 129.335938 264.371094 127.035156 C 267.816406 124.734375 271.316406 122.515625 274.867188 120.386719 C 278.421875 118.257812 282.023438 116.214844 285.675781 114.265625 C 289.332031 112.3125 293.03125 110.449219 296.773438 108.675781 C 300.519531 106.90625 304.304688 105.226562 308.132812 103.644531 C 311.960938 102.058594 315.824219 100.566406 319.726562 99.171875 C 323.625 97.777344 327.558594 96.476562 331.523438 95.273438 C 335.484375 94.070312 339.476562 92.96875 343.496094 91.960938 C 347.515625 90.953125 351.554688 90.046875 355.617188 89.238281 C 359.679688 88.429688 363.761719 87.722656 367.859375 87.113281 C 371.957031 86.507812 376.066406 86 380.1875 85.59375 C 384.3125 85.1875 388.441406 84.882812 392.578125 84.679688 C 396.71875 84.476562 400.859375 84.375 405 84.375 C 409.140625 84.375 413.28125 84.476562 417.421875 84.679688 C 421.558594 84.882812 425.6875 85.1875 429.8125 85.59375 C 433.933594 86 438.042969 86.507812 442.140625 87.113281 C 446.238281 87.722656 450.320312 88.429688 454.382812 89.238281 C 458.445312 90.046875 462.484375 90.953125 466.503906 91.960938 C 470.523438 92.96875 474.515625 94.070312 478.476562 95.273438 C 482.441406 96.476562 486.375 97.777344 490.273438 99.171875 C 494.175781 100.566406 498.039062 102.058594 501.867188 103.644531 C 505.695312 105.226562 509.480469 106.90625 513.226562 108.675781 C 516.96875 110.449219 520.667969 112.3125 524.320312 114.265625 C 527.976562 116.214844 531.578125 118.257812 535.132812 120.386719 C 538.683594 122.515625 542.183594 124.734375 545.628906 127.035156 C 549.074219 129.335938 552.460938 131.71875 555.785156 134.1875 C 559.113281 136.65625 562.378906 139.203125 565.582031 141.832031 C 568.78125 144.460938 571.917969 147.164062 574.988281 149.945312 C 578.058594 152.730469 581.058594 155.585938 583.984375 158.511719 C 586.914062 161.441406 589.769531 164.441406 592.554688 167.511719 C 595.335938 170.582031 598.039062 173.71875 600.667969 176.917969 C 603.296875 180.121094 605.84375 183.386719 608.3125 186.714844 C 610.78125 190.039062 613.164062 193.425781 615.464844 196.871094 C 617.765625 200.316406 619.984375 203.816406 622.113281 207.367188 C 624.242188 210.921875 626.285156 214.523438 628.234375 218.175781 C 630.1875 221.832031 632.050781 225.53125 633.820312 229.273438 C 635.59375 233.019531 637.273438 236.804688 638.855469 240.632812 C 640.441406 244.460938 641.933594 248.324219 643.328125 252.226562 C 644.722656 256.125 646.023438 260.058594 647.226562 264.023438 C 648.429688 267.984375 649.53125 271.976562 650.539062 275.996094 C 651.546875 280.015625 652.453125 284.054688 653.261719 288.117188 C 654.070312 292.179688 654.777344 296.261719 655.386719 300.359375 C 655.992188 304.457031 656.5 308.566406 656.90625 312.6875 C 657.3125 316.8125 657.617188 320.941406 657.820312 325.078125 C 658.023438 329.21875 658.125 333.359375 658.125 337.5 Z M 658.125 337.5 "/>
<path style=" stroke:none;fill-rule:nonzero;fill:rgb(69.018555%,74.508667%,77.249146%);fill-opacity:1;" d="M 624.375 337.5 C 624.375 341.089844 624.285156 344.679688 624.109375 348.265625 C 623.933594 351.851562 623.671875 355.429688 623.320312 359.003906 C 622.964844 362.574219 622.527344 366.136719 622 369.6875 C 621.472656 373.242188 620.859375 376.777344 620.160156 380.296875 C 619.460938 383.820312 618.671875 387.320312 617.800781 390.804688 C 616.929688 394.285156 615.972656 397.746094 614.929688 401.179688 C 613.886719 404.617188 612.761719 408.023438 611.550781 411.40625 C 610.339844 414.785156 609.050781 418.132812 607.675781 421.449219 C 606.300781 424.769531 604.847656 428.050781 603.3125 431.292969 C 601.777344 434.539062 600.164062 437.746094 598.472656 440.914062 C 596.777344 444.078125 595.011719 447.203125 593.164062 450.28125 C 591.316406 453.359375 589.398438 456.394531 587.402344 459.378906 C 585.410156 462.363281 583.34375 465.296875 581.203125 468.179688 C 579.066406 471.066406 576.855469 473.894531 574.578125 476.671875 C 572.300781 479.445312 569.957031 482.164062 567.546875 484.824219 C 565.136719 487.484375 562.660156 490.082031 560.121094 492.621094 C 557.582031 495.160156 554.984375 497.636719 552.324219 500.046875 C 549.664062 502.457031 546.945312 504.800781 544.171875 507.078125 C 541.394531 509.355469 538.566406 511.566406 535.679688 513.703125 C 532.796875 515.84375 529.863281 517.910156 526.878906 519.902344 C 523.894531 521.898438 520.859375 523.820312 517.78125 525.664062 C 514.703125 527.511719 511.578125 529.277344 508.414062 530.972656 C 505.246094 532.664062 502.039062 534.277344 498.792969 535.8125 C 495.550781 537.347656 492.269531 538.800781 488.949219 540.175781 C 485.632812 541.550781 482.285156 542.839844 478.90625 544.050781 C 475.523438 545.261719 472.117188 546.386719 468.679688 547.429688 C 465.246094 548.472656 461.785156 549.429688 458.304688 550.300781 C 454.820312 551.171875 451.320312 551.960938 447.796875 552.660156 C 444.277344 553.359375 440.742188 553.972656 437.1875 554.5 C 433.636719 555.027344 430.074219 555.464844 426.503906 555.820312 C 422.929688 556.171875 419.351562 556.433594 415.765625 556.609375 C 412.179688 556.785156 408.589844 556.875 405 556.875 C 401.410156 556.875 397.820312 556.785156 394.234375 556.609375 C 390.648438 556.433594 387.070312 556.171875 383.496094 555.820312 C 379.925781 555.464844 376.363281 555.027344 372.8125 554.5 C 369.257812 553.972656 365.722656 553.359375 362.203125 552.660156 C 358.679688 551.960938 355.179688 551.171875 351.695312 550.300781 C 348.214844 549.429688 344.753906 548.472656 341.320312 547.429688 C 337.882812 546.386719 334.476562 545.261719 331.09375 544.050781 C 327.714844 542.839844 324.367188 541.550781 321.046875 540.175781 C 317.730469 538.800781 314.449219 537.347656 311.203125 535.8125 C 307.960938 534.277344 304.753906 532.664062 301.585938 530.972656 C 298.421875 529.277344 295.296875 527.511719 292.21875 525.664062 C 289.140625 523.820312 286.105469 521.898438 283.121094 519.902344 C 280.136719 517.910156 277.203125 515.84375 274.320312 513.703125 C 271.433594 511.566406 268.605469 509.355469 265.828125 507.078125 C 263.054688 504.800781 260.335938 502.457031 257.675781 500.046875 C 255.015625 497.636719 252.417969 495.160156 249.878906 492.621094 C 247.339844 490.082031 244.863281 487.484375 242.453125 484.824219 C 240.042969 482.164062 237.699219 479.445312 235.421875 476.671875 C 233.144531 473.894531 230.933594 471.066406 228.796875 468.179688 C 226.65625 465.296875 224.589844 462.363281 222.597656 459.378906 C 220.601562 456.394531 218.679688 453.359375 216.835938 450.28125 C 214.988281 447.203125 213.222656 444.078125 211.527344 440.914062 C 209.835938 437.746094 208.222656 434.539062 206.6875 431.292969 C 205.152344 428.050781 203.699219 424.769531 202.324219 421.449219 C 200.949219 418.132812 199.660156 414.785156 198.449219 411.40625 C 197.238281 408.023438 196.113281 404.617188 195.070312 401.179688 C 194.027344 397.746094 193.070312 394.285156 192.199219 390.804688 C 191.328125 387.320312 190.539062 383.820312 189.839844 380.296875 C 189.140625 376.777344 188.527344 373.242188 188 369.6875 C 187.472656 366.136719 187.035156 362.574219 186.679688 359.003906 C 186.328125 355.429688 186.066406 351.851562 185.890625 348.265625 C 185.714844 344.679688 185.625 341.089844 185.625 337.5 C 185.625 333.910156 185.714844 330.320312 185.890625 326.734375 C 186.066406 323.148438 186.328125 319.570312 186.679688 315.996094 C 187.035156 312.425781 187.472656 308.863281 188 305.3125 C 188.527344 301.757812 189.140625 298.222656 189.839844 294.703125 C 190.539062 291.179688 191.328125 287.679688 192.199219 284.195312 C 193.070312 280.714844 194.027344 277.253906 195.070312 273.820312 C 196.113281 270.382812 197.238281 266.976562 198.449219 263.59375 C 199.660156 260.214844 200.949219 256.867188 202.324219 253.546875 C 203.699219 250.230469 205.152344 246.949219 206.6875 243.707031 C 208.222656 240.460938 209.835938 237.253906 211.527344 234.085938 C 213.222656 230.921875 214.988281 227.796875 216.835938 224.71875 C 218.679688 221.640625 220.601562 218.605469 222.597656 215.621094 C 224.589844 212.636719 226.65625 209.703125 228.796875 206.820312 C 230.933594 203.933594 233.144531 201.105469 235.421875 198.328125 C 237.699219 195.554688 240.042969 192.835938 242.453125 190.175781 C 244.863281 187.515625 247.339844 184.917969 249.878906 182.378906 C 252.417969 179.839844 255.015625 177.363281 257.675781 174.953125 C 260.335938 172.542969 263.054688 170.199219 265.828125 167.921875 C 268.605469 165.644531 271.433594 163.433594 274.320312 161.296875 C 277.203125 159.15625 280.136719 157.089844 283.121094 155.097656 C 286.105469 153.101562 289.140625 151.179688 292.21875 149.335938 C 295.296875 147.488281 298.421875 145.722656 301.585938 144.027344 C 304.753906 142.335938 307.960938 140.722656 311.203125 139.1875 C 314.449219 137.652344 317.730469 136.199219 321.046875 134.824219 C 324.367188 133.449219 327.714844 132.160156 331.09375 130.949219 C 334.476562 129.738281 337.882812 128.613281 341.320312 127.570312 C 344.753906 126.527344 348.214844 125.570312 351.695312 124.699219 C 355.179688 123.828125 358.679688 123.039062 362.203125 122.339844 C 365.722656 121.640625 369.257812 121.027344 372.8125 120.5 C 376.363281 119.972656 379.925781 119.535156 383.496094 119.179688 C 387.070312 118.828125 390.648438 118.566406 394.234375 118.390625 C 397.820312 118.214844 401.410156 118.125 405 118.125 C 408.589844 118.125 412.179688 118.214844 415.765625 118.390625 C 419.351562 118.566406 422.929688 118.828125 426.503906 119.179688 C 430.074219 119.535156 433.636719 119.972656 437.1875 120.5 C 440.742188 121.027344 444.277344 121.640625 447.796875 122.339844 C 451.320312 123.039062 454.820312 123.828125 458.304688 124.699219 C 461.785156 125.570312 465.246094 126.527344 468.679688 127.570312 C 472.117188 128.613281 475.523438 129.738281 478.90625 130.949219 C 482.285156 132.160156 485.632812 133.449219 488.949219 134.824219 C 492.269531 136.199219 495.550781 137.652344 498.792969 139.1875 C 502.039062 140.722656 505.246094 142.335938 508.414062 144.027344 C 511.578125 145.722656 514.703125 147.488281 517.78125 149.335938 C 520.859375 151.179688 523.894531 153.101562 526.878906 155.097656 C 529.863281 157.089844 532.796875 159.15625 535.679688 161.296875 C 538.566406 163.433594 541.394531 165.644531 544.171875 167.921875 C 546.945312 170.199219 549.664062 172.542969 552.324219 174.953125 C 554.984375 177.363281 557.582031 179.839844 560.121094 182.378906 C 562.660156 184.917969 565.136719 187.515625 567.546875 190.175781 C 569.957031 192.835938 572.300781 195.554688 574.578125 198.328125 C 576.855469 201.105469 579.066406 203.933594 581.203125 206.820312 C 583.34375 209.703125 585.410156 212.636719 587.402344 215.621094 C 589.398438 218.605469 591.316406 221.640625 593.164062 224.71875 C 595.011719 227.796875 596.777344 230.921875 598.472656 234.085938 C 600.164062 237.253906 601.777344 240.460938 603.3125 243.707031 C 604.847656 246.949219 606.300781 250.230469 607.675781 253.546875 C 609.050781 256.867188 610.339844 260.214844 611.550781 263.59375 C 612.761719 266.976562 613.886719 270.382812 614.929688 273.820312 C 615.972656 277.253906 616.929688 280.714844 617.800781 284.195312 C 618.671875 287.679688 619.460938 291.179688 620.160156 294.703125 C 620.859375 298.222656 621.472656 301.757812 622 305.3125 C 622.527344 308.863281 622.964844 312.425781 623.320312 315.996094 C 623.671875 319.570312 623.933594 323.148438 624.109375 326.734375 C 624.285156 330.320312 624.375 333.910156 624.375 337.5 Z M 624.375 337.5 "/>
<path style=" stroke:none;fill-rule:nonzero;fill:rgb(81.17981%,84.709167%,86.268616%);fill-opacity:1;" d="M 438.75 691.875 L 371.25 691.875 L 354.375 455.625 L 455.625 455.625 Z M 438.75 691.875 "/>
<path style=" stroke:none;fill-rule:nonzero;fill:rgb(69.018555%,74.508667%,77.249146%);fill-opacity:1;" d="M 540 658.125 C 540 658.675781 539.972656 659.230469 539.917969 659.777344 C 539.863281 660.328125 539.785156 660.875 539.675781 661.417969 C 539.566406 661.960938 539.433594 662.496094 539.273438 663.023438 C 539.113281 663.550781 538.925781 664.070312 538.714844 664.582031 C 538.503906 665.09375 538.269531 665.59375 538.007812 666.078125 C 537.746094 666.566406 537.464844 667.039062 537.15625 667.5 C 536.847656 667.960938 536.519531 668.402344 536.167969 668.832031 C 535.820312 669.257812 535.449219 669.667969 535.058594 670.058594 C 534.667969 670.449219 534.257812 670.820312 533.832031 671.167969 C 533.402344 671.519531 532.960938 671.847656 532.5 672.15625 C 532.039062 672.464844 531.566406 672.746094 531.078125 673.007812 C 530.59375 673.269531 530.09375 673.503906 529.582031 673.714844 C 529.070312 673.925781 528.550781 674.113281 528.023438 674.273438 C 527.496094 674.433594 526.960938 674.566406 526.417969 674.675781 C 525.875 674.785156 525.328125 674.863281 524.777344 674.917969 C 524.230469 674.972656 523.675781 675 523.125 675 C 522.574219 675 522.019531 674.972656 521.472656 674.917969 C 520.921875 674.863281 520.375 674.785156 519.832031 674.675781 C 519.289062 674.566406 518.753906 674.433594 518.226562 674.273438 C 517.699219 674.113281 517.179688 673.925781 516.667969 673.714844 C 516.15625 673.503906 515.65625 673.269531 515.171875 673.007812 C 514.683594 672.746094 514.210938 672.464844 513.75 672.15625 C 513.289062 671.847656 512.847656 671.519531 512.417969 671.167969 C 511.992188 670.820312 511.582031 670.449219 511.191406 670.058594 C 510.800781 669.667969 510.429688 669.257812 510.082031 668.832031 C 509.730469 668.402344 509.402344 667.960938 509.09375 667.5 C 508.785156 667.039062 508.503906 666.566406 508.242188 666.078125 C 507.980469 665.59375 507.746094 665.09375 507.535156 664.582031 C 507.324219 664.070312 507.136719 663.550781 506.976562 663.023438 C 506.816406 662.496094 506.683594 661.960938 506.574219 661.417969 C 506.464844 660.875 506.386719 660.328125 506.332031 659.777344 C 506.277344 659.230469 506.25 658.675781 506.25 658.125 C 506.25 657.574219 506.277344 657.019531 506.332031 656.472656 C 506.386719 655.921875 506.464844 655.375 506.574219 654.832031 C 506.683594 654.289062 506.816406 653.753906 506.976562 653.226562 C 507.136719 652.699219 507.324219 652.179688 507.535156 651.667969 C 507.746094 651.15625 507.980469 650.65625 508.242188 650.171875 C 508.503906 649.683594 508.785156 649.210938 509.09375 648.75 C 509.402344 648.289062 509.730469 647.847656 510.082031 647.417969 C 510.429688 646.992188 510.800781 646.582031 511.191406 646.191406 C 511.582031 645.800781 511.992188 645.429688 512.417969 645.082031 C 512.847656 644.730469 513.289062 644.402344 513.75 644.09375 C 514.210938 643.785156 514.683594 643.503906 515.171875 643.242188 C 515.65625 642.980469 516.15625 642.746094 516.667969 642.535156 C 517.179688 642.324219 517.699219 642.136719 518.226562 641.976562 C 518.753906 641.816406 519.289062 641.683594 519.832031 641.574219 C 520.375 641.464844 520.921875 641.386719 521.472656 641.332031 C 522.019531 641.277344 522.574219 641.25 523.125 641.25 C 523.675781 641.25 524.230469 641.277344 524.777344 641.332031 C 525.328125 641.386719 525.875 641.464844 526.417969 641.574219 C 526.960938 641.683594 527.496094 641.816406 528.023438 641.976562 C 528.550781 642.136719 529.070312 642.324219 529.582031 642.535156 C 530.09375 642.746094 530.59375 642.980469 531.078125 643.242188 C 531.566406 643.503906 532.039062 643.785156 532.5 644.09375 C 532.960938 644.402344 533.402344 644.730469 533.832031 645.082031 C 534.257812 645.429688 534.667969 645.800781 535.058594 646.191406 C 535.449219 646.582031 535.820312 646.992188 536.167969 647.417969 C 536.519531 647.847656 536.847656 648.289062 537.15625 648.75 C 537.464844 649.210938 537.746094 649.683594 538.007812 650.171875 C 538.269531 650.65625 538.503906 651.15625 538.714844 651.667969 C 538.925781 652.179688 539.113281 652.699219 539.273438 653.226562 C 539.433594 653.753906 539.566406 654.289062 539.675781 654.832031 C 539.785156 655.375 539.863281 655.921875 539.917969 656.472656 C 539.972656 657.019531 540 657.574219 540 658.125 Z M 540 658.125 "/>
<path style=" stroke:none;fill-rule:nonzero;fill:rgb(56.469727%,64.309692%,68.238831%);fill-opacity:1;" d="M 388.125 219.375 C 388.125 219.925781 388.097656 220.480469 388.042969 221.027344 C 387.988281 221.578125 387.910156 222.125 387.800781 222.667969 C 387.691406 223.210938 387.558594 223.746094 387.398438 224.273438 C 387.238281 224.800781 387.050781 225.320312 386.839844 225.832031 C 386.628906 226.34375 386.394531 226.84375 386.132812 227.328125 C 385.871094 227.816406 385.589844 228.289062 385.28125 228.75 C 384.972656 229.210938 384.644531 229.652344 384.292969 230.082031 C 383.945312 230.507812 383.574219 230.917969 383.183594 231.308594 C 382.792969 231.699219 382.382812 232.070312 381.957031 232.417969 C 381.527344 232.769531 381.085938 233.097656 380.625 233.40625 C 380.164062 233.714844 379.691406 233.996094 379.203125 234.257812 C 378.71875 234.519531 378.21875 234.753906 377.707031 234.964844 C 377.195312 235.175781 376.675781 235.363281 376.148438 235.523438 C 375.621094 235.683594 375.085938 235.816406 374.542969 235.925781 C 374 236.035156 373.453125 236.113281 372.902344 236.167969 C 372.355469 236.222656 371.800781 236.25 371.25 236.25 C 370.699219 236.25 370.144531 236.222656 369.597656 236.167969 C 369.046875 236.113281 368.5 236.035156 367.957031 235.925781 C 367.414062 235.816406 366.878906 235.683594 366.351562 235.523438 C 365.824219 235.363281 365.304688 235.175781 364.792969 234.964844 C 364.28125 234.753906 363.78125 234.519531 363.296875 234.257812 C 362.808594 233.996094 362.335938 233.714844 361.875 233.40625 C 361.414062 233.097656 360.972656 232.769531 360.542969 232.417969 C 360.117188 232.070312 359.707031 231.699219 359.316406 231.308594 C 358.925781 230.917969 358.554688 230.507812 358.207031 230.082031 C 357.855469 229.652344 357.527344 229.210938 357.21875 228.75 C 356.910156 228.289062 356.628906 227.816406 356.367188 227.328125 C 356.105469 226.84375 355.871094 226.34375 355.660156 225.832031 C 355.449219 225.320312 355.261719 224.800781 355.101562 224.273438 C 354.941406 223.746094 354.808594 223.210938 354.699219 222.667969 C 354.589844 222.125 354.511719 221.578125 354.457031 221.027344 C 354.402344 220.480469 354.375 219.925781 354.375 219.375 C 354.375 218.824219 354.402344 218.269531 354.457031 217.722656 C 354.511719 217.171875 354.589844 216.625 354.699219 216.082031 C 354.808594 215.539062 354.941406 215.003906 355.101562 214.476562 C 355.261719 213.949219 355.449219 213.429688 355.660156 212.917969 C 355.871094 212.40625 356.105469 211.90625 356.367188 211.421875 C 356.628906 210.933594 356.910156 210.460938 357.21875 210 C 357.527344 209.539062 357.855469 209.097656 358.207031 208.667969 C 358.554688 208.242188 358.925781 207.832031 359.316406 207.441406 C 359.707031 207.050781 360.117188 206.679688 360.542969 206.332031 C 360.972656 205.980469 361.414062 205.652344 361.875 205.34375 C 362.335938 205.035156 362.808594 204.753906 363.296875 204.492188 C 363.78125 204.230469 364.28125 203.996094 364.792969 203.785156 C 365.304688 203.574219 365.824219 203.386719 366.351562 203.226562 C 366.878906 203.066406 367.414062 202.933594 367.957031 202.824219 C 368.5 202.714844 369.046875 202.636719 369.597656 202.582031 C 370.144531 202.527344 370.699219 202.5 371.25 202.5 C 371.800781 202.5 372.355469 202.527344 372.902344 202.582031 C 373.453125 202.636719 374 202.714844 374.542969 202.824219 C 375.085938 202.933594 375.621094 203.066406 376.148438 203.226562 C 376.675781 203.386719 377.195312 203.574219 377.707031 203.785156 C 378.21875 203.996094 378.71875 204.230469 379.203125 204.492188 C 379.691406 204.753906 380.164062 205.035156 380.625 205.34375 C 381.085938 205.652344 381.527344 205.980469 381.957031 206.332031 C 382.382812 206.679688 382.792969 207.050781 383.183594 207.441406 C 383.574219 207.832031 383.945312 208.242188 384.292969 208.667969 C 384.644531 209.097656 384.972656 209.539062 385.28125 210 C 385.589844 210.460938 385.871094 210.933594 386.132812 211.421875 C 386.394531 211.90625 386.628906 212.40625 386.839844 212.917969 C 387.050781 213.429688 387.238281 213.949219 387.398438 214.476562 C 387.558594 215.003906 387.691406 215.539062 387.800781 216.082031 C 387.910156 216.625 387.988281 217.171875 388.042969 217.722656 C 388.097656 218.269531 388.125 218.824219 388.125 219.375 Z M 388.125 219.375 "/>
<path style=" stroke:none;fill-rule:nonzero;fill:rgb(56.469727%,64.309692%,68.238831%);fill-opacity:1;" d="M 455.625 219.375 C 455.625 219.925781 455.597656 220.480469 455.542969 221.027344 C 455.488281 221.578125 455.410156 222.125 455.300781 222.667969 C 455.191406 223.210938 455.058594 223.746094 454.898438 224.273438 C 454.738281 224.800781 454.550781 225.320312 454.339844 225.832031 C 454.128906 226.34375 453.894531 226.84375 453.632812 227.328125 C 453.371094 227.816406 453.089844 228.289062 452.78125 228.75 C 452.472656 229.210938 452.144531 229.652344 451.792969 230.082031 C 451.445312 230.507812 451.074219 230.917969 450.683594 231.308594 C 450.292969 231.699219 449.882812 232.070312 449.457031 232.417969 C 449.027344 232.769531 448.585938 233.097656 448.125 233.40625 C 447.664062 233.714844 447.191406 233.996094 446.703125 234.257812 C 446.21875 234.519531 445.71875 234.753906 445.207031 234.964844 C 444.695312 235.175781 444.175781 235.363281 443.648438 235.523438 C 443.121094 235.683594 442.585938 235.816406 442.042969 235.925781 C 441.5 236.035156 440.953125 236.113281 440.402344 236.167969 C 439.855469 236.222656 439.300781 236.25 438.75 236.25 C 438.199219 236.25 437.644531 236.222656 437.097656 236.167969 C 436.546875 236.113281 436 236.035156 435.457031 235.925781 C 434.914062 235.816406 434.378906 235.683594 433.851562 235.523438 C 433.324219 235.363281 432.804688 235.175781 432.292969 234.964844 C 431.78125 234.753906 431.28125 234.519531 430.796875 234.257812 C 430.308594 233.996094 429.835938 233.714844 429.375 233.40625 C 428.914062 233.097656 428.472656 232.769531 428.042969 232.417969 C 427.617188 232.070312 427.207031 231.699219 426.816406 231.308594 C 426.425781 230.917969 426.054688 230.507812 425.707031 230.082031 C 425.355469 229.652344 425.027344 229.210938 424.71875 228.75 C 424.410156 228.289062 424.128906 227.816406 423.867188 227.328125 C 423.605469 226.84375 423.371094 226.34375 423.160156 225.832031 C 422.949219 225.320312 422.761719 224.800781 422.601562 224.273438 C 422.441406 223.746094 422.308594 223.210938 422.199219 222.667969 C 422.089844 222.125 422.011719 221.578125 421.957031 221.027344 C 421.902344 220.480469 421.875 219.925781 421.875 219.375 C 421.875 218.824219 421.902344 218.269531 421.957031 217.722656 C 422.011719 217.171875 422.089844 216.625 422.199219 216.082031 C 422.308594 215.539062 422.441406 215.003906 422.601562 214.476562 C 422.761719 213.949219 422.949219 213.429688 423.160156 212.917969 C 423.371094 212.40625 423.605469 211.90625 423.867188 211.421875 C 424.128906 210.933594 424.410156 210.460938 424.71875 210 C 425.027344 209.539062 425.355469 209.097656 425.707031 208.667969 C 426.054688 208.242188 426.425781 207.832031 426.816406 207.441406 C 427.207031 207.050781 427.617188 206.679688 428.042969 206.332031 C 428.472656 205.980469 428.914062 205.652344 429.375 205.34375 C 429.835938 205.035156 430.308594 204.753906 430.796875 204.492188 C 431.28125 204.230469 431.78125 203.996094 432.292969 203.785156 C 432.804688 203.574219 433.324219 203.386719 433.851562 203.226562 C 434.378906 203.066406 434.914062 202.933594 435.457031 202.824219 C 436 202.714844 436.546875 202.636719 437.097656 202.582031 C 437.644531 202.527344 438.199219 202.5 438.75 202.5 C 439.300781 202.5 439.855469 202.527344 440.402344 202.582031 C 440.953125 202.636719 441.5 202.714844 442.042969 202.824219 C 442.585938 202.933594 443.121094 203.066406 443.648438 203.226562 C 444.175781 203.386719 444.695312 203.574219 445.207031 203.785156 C 445.71875 203.996094 446.21875 204.230469 446.703125 204.492188 C 447.191406 204.753906 447.664062 205.035156 448.125 205.34375 C 448.585938 205.652344 449.027344 205.980469 449.457031 206.332031 C 449.882812 206.679688 450.292969 207.050781 450.683594 207.441406 C 451.074219 207.832031 451.445312 208.242188 451.792969 208.667969 C 452.144531 209.097656 452.472656 209.539062 452.78125 210 C 453.089844 210.460938 453.371094 210.933594 453.632812 211.421875 C 453.894531 211.90625 454.128906 212.40625 454.339844 212.917969 C 454.550781 213.429688 454.738281 213.949219 454.898438 214.476562 C 455.058594 215.003906 455.191406 215.539062 455.300781 216.082031 C 455.410156 216.625 455.488281 217.171875 455.542969 217.722656 C 455.597656 218.269531 455.625 218.824219 455.625 219.375 Z M 455.625 219.375 "/>
<path style=" stroke:none;fill-rule:nonzero;fill:rgb(56.469727%,64.309692%,68.238831%);fill-opacity:1;" d="M 421.875 151.875 C 421.875 152.425781 421.847656 152.980469 421.792969 153.527344 C 421.738281 154.078125 421.660156 154.625 421.550781 155.167969 C 421.441406 155.710938 421.308594 156.246094 421.148438 156.773438 C 420.988281 157.300781 420.800781 157.820312 420.589844 158.332031 C 420.378906 158.84375 420.144531 159.34375 419.882812 159.828125 C 419.621094 160.316406 419.339844 160.789062 419.03125 161.25 C 418.722656 161.710938 418.394531 162.152344 418.042969 162.582031 C 417.695312 163.007812 417.324219 163.417969 416.933594 163.808594 C 416.542969 164.199219 416.132812 164.570312 415.707031 164.917969 C 415.277344 165.269531 414.835938 165.597656 414.375 165.90625 C 413.914062 166.214844 413.441406 166.496094 412.953125 166.757812 C 412.46875 167.019531 411.96875 167.253906 411.457031 167.464844 C 410.945312 167.675781 410.425781 167.863281 409.898438 168.023438 C 409.371094 168.183594 408.835938 168.316406 408.292969 168.425781 C 407.75 168.535156 407.203125 168.613281 406.652344 168.667969 C 406.105469 168.722656 405.550781 168.75 405 168.75 C 404.449219 168.75 403.894531 168.722656 403.347656 168.667969 C 402.796875 168.613281 402.25 168.535156 401.707031 168.425781 C 401.164062 168.316406 400.628906 168.183594 400.101562 168.023438 C 399.574219 167.863281 399.054688 167.675781 398.542969 167.464844 C 398.03125 167.253906 397.53125 167.019531 397.046875 166.757812 C 396.558594 166.496094 396.085938 166.214844 395.625 165.90625 C 395.164062 165.597656 394.722656 165.269531 394.292969 164.917969 C 393.867188 164.570312 393.457031 164.199219 393.066406 163.808594 C 392.675781 163.417969 392.304688 163.007812 391.957031 162.582031 C 391.605469 162.152344 391.277344 161.710938 390.96875 161.25 C 390.660156 160.789062 390.378906 160.316406 390.117188 159.828125 C 389.855469 159.34375 389.621094 158.84375 389.410156 158.332031 C 389.199219 157.820312 389.011719 157.300781 388.851562 156.773438 C 388.691406 156.246094 388.558594 155.710938 388.449219 155.167969 C 388.339844 154.625 388.261719 154.078125 388.207031 153.527344 C 388.152344 152.980469 388.125 152.425781 388.125 151.875 C 388.125 151.324219 388.152344 150.769531 388.207031 150.222656 C 388.261719 149.671875 388.339844 149.125 388.449219 148.582031 C 388.558594 148.039062 388.691406 147.503906 388.851562 146.976562 C 389.011719 146.449219 389.199219 145.929688 389.410156 145.417969 C 389.621094 144.90625 389.855469 144.40625 390.117188 143.921875 C 390.378906 143.433594 390.660156 142.960938 390.96875 142.5 C 391.277344 142.039062 391.605469 141.597656 391.957031 141.167969 C 392.304688 140.742188 392.675781 140.332031 393.066406 139.941406 C 393.457031 139.550781 393.867188 139.179688 394.292969 138.832031 C 394.722656 138.480469 395.164062 138.152344 395.625 137.84375 C 396.085938 137.535156 396.558594 137.253906 397.046875 136.992188 C 397.53125 136.730469 398.03125 136.496094 398.542969 136.285156 C 399.054688 136.074219 399.574219 135.886719 400.101562 135.726562 C 400.628906 135.566406 401.164062 135.433594 401.707031 135.324219 C 402.25 135.214844 402.796875 135.136719 403.347656 135.082031 C 403.894531 135.027344 404.449219 135 405 135 C 405.550781 135 406.105469 135.027344 406.652344 135.082031 C 407.203125 135.136719 407.75 135.214844 408.292969 135.324219 C 408.835938 135.433594 409.371094 135.566406 409.898438 135.726562 C 410.425781 135.886719 410.945312 136.074219 411.457031 136.285156 C 411.96875 136.496094 412.46875 136.730469 412.953125 136.992188 C 413.441406 137.253906 413.914062 137.535156 414.375 137.84375 C 414.835938 138.152344 415.277344 138.480469 415.707031 138.832031 C 416.132812 139.179688 416.542969 139.550781 416.933594 139.941406 C 417.324219 140.332031 417.695312 140.742188 418.042969 141.167969 C 418.394531 141.597656 418.722656 142.039062 419.03125 142.5 C 419.339844 142.960938 419.621094 143.433594 419.882812 143.921875 C 420.144531 144.40625 420.378906 144.90625 420.589844 145.417969 C 420.800781 145.929688 420.988281 146.449219 421.148438 146.976562 C 421.308594 147.503906 421.441406 148.039062 421.550781 148.582031 C 421.660156 149.125 421.738281 149.671875 421.792969 150.222656 C 421.847656 150.769531 421.875 151.324219 421.875 151.875 Z M 421.875 151.875 "/>
<path style=" stroke:none;fill-rule:nonzero;fill:rgb(56.469727%,64.309692%,68.238831%);fill-opacity:1;" d="M 354.375 168.75 C 354.375 169.300781 354.347656 169.855469 354.292969 170.402344 C 354.238281 170.953125 354.160156 171.5 354.050781 172.042969 C 353.941406 172.585938 353.808594 173.121094 353.648438 173.648438 C 353.488281 174.175781 353.300781 174.695312 353.089844 175.207031 C 352.878906 175.71875 352.644531 176.21875 352.382812 176.703125 C 352.121094 177.191406 351.839844 177.664062 351.53125 178.125 C 351.222656 178.585938 350.894531 179.027344 350.542969 179.457031 C 350.195312 179.882812 349.824219 180.292969 349.433594 180.683594 C 349.042969 181.074219 348.632812 181.445312 348.207031 181.792969 C 347.777344 182.144531 347.335938 182.472656 346.875 182.78125 C 346.414062 183.089844 345.941406 183.371094 345.453125 183.632812 C 344.96875 183.894531 344.46875 184.128906 343.957031 184.339844 C 343.445312 184.550781 342.925781 184.738281 342.398438 184.898438 C 341.871094 185.058594 341.335938 185.191406 340.792969 185.300781 C 340.25 185.410156 339.703125 185.488281 339.152344 185.542969 C 338.605469 185.597656 338.050781 185.625 337.5 185.625 C 336.949219 185.625 336.394531 185.597656 335.847656 185.542969 C 335.296875 185.488281 334.75 185.410156 334.207031 185.300781 C 333.664062 185.191406 333.128906 185.058594 332.601562 184.898438 C 332.074219 184.738281 331.554688 184.550781 331.042969 184.339844 C 330.53125 184.128906 330.03125 183.894531 329.546875 183.632812 C 329.058594 183.371094 328.585938 183.089844 328.125 182.78125 C 327.664062 182.472656 327.222656 182.144531 326.792969 181.792969 C 326.367188 181.445312 325.957031 181.074219 325.566406 180.683594 C 325.175781 180.292969 324.804688 179.882812 324.457031 179.457031 C 324.105469 179.027344 323.777344 178.585938 323.46875 178.125 C 323.160156 177.664062 322.878906 177.191406 322.617188 176.703125 C 322.355469 176.21875 322.121094 175.71875 321.910156 175.207031 C 321.699219 174.695312 321.511719 174.175781 321.351562 173.648438 C 321.191406 173.121094 321.058594 172.585938 320.949219 172.042969 C 320.839844 171.5 320.761719 170.953125 320.707031 170.402344 C 320.652344 169.855469 320.625 169.300781 320.625 168.75 C 320.625 168.199219 320.652344 167.644531 320.707031 167.097656 C 320.761719 166.546875 320.839844 166 320.949219 165.457031 C 321.058594 164.914062 321.191406 164.378906 321.351562 163.851562 C 321.511719 163.324219 321.699219 162.804688 321.910156 162.292969 C 322.121094 161.78125 322.355469 161.28125 322.617188 160.796875 C 322.878906 160.308594 323.160156 159.835938 323.46875 159.375 C 323.777344 158.914062 324.105469 158.472656 324.457031 158.042969 C 324.804688 157.617188 325.175781 157.207031 325.566406 156.816406 C 325.957031 156.425781 326.367188 156.054688 326.792969 155.707031 C 327.222656 155.355469 327.664062 155.027344 328.125 154.71875 C 328.585938 154.410156 329.058594 154.128906 329.546875 153.867188 C 330.03125 153.605469 330.53125 153.371094 331.042969 153.160156 C 331.554688 152.949219 332.074219 152.761719 332.601562 152.601562 C 333.128906 152.441406 333.664062 152.308594 334.207031 152.199219 C 334.75 152.089844 335.296875 152.011719 335.847656 151.957031 C 336.394531 151.902344 336.949219 151.875 337.5 151.875 C 338.050781 151.875 338.605469 151.902344 339.152344 151.957031 C 339.703125 152.011719 340.25 152.089844 340.792969 152.199219 C 341.335938 152.308594 341.871094 152.441406 342.398438 152.601562 C 342.925781 152.761719 343.445312 152.949219 343.957031 153.160156 C 344.46875 153.371094 344.96875 153.605469 345.453125 153.867188 C 345.941406 154.128906 346.414062 154.410156 346.875 154.71875 C 347.335938 155.027344 347.777344 155.355469 348.207031 155.707031 C 348.632812 156.054688 349.042969 156.425781 349.433594 156.816406 C 349.824219 157.207031 350.195312 157.617188 350.542969 158.042969 C 350.894531 158.472656 351.222656 158.914062 351.53125 159.375 C 351.839844 159.835938 352.121094 160.308594 352.382812 160.796875 C 352.644531 161.28125 352.878906 161.78125 353.089844 162.292969 C 353.300781 162.804688 353.488281 163.324219 353.648438 163.851562 C 353.808594 164.378906 353.941406 164.914062 354.050781 165.457031 C 354.160156 166 354.238281 166.546875 354.292969 167.097656 C 354.347656 167.644531 354.375 168.199219 354.375 168.75 Z M 354.375 168.75 "/>
<path style=" stroke:none;fill-rule:nonzero;fill:rgb(56.469727%,64.309692%,68.238831%);fill-opacity:1;" d="M 489.375 168.75 C 489.375 169.300781 489.347656 169.855469 489.292969 170.402344 C 489.238281 170.953125 489.160156 171.5 489.050781 172.042969 C 488.941406 172.585938 488.808594 173.121094 488.648438 173.648438 C 488.488281 174.175781 488.300781 174.695312 488.089844 175.207031 C 487.878906 175.71875 487.644531 176.21875 487.382812 176.703125 C 487.121094 177.191406 486.839844 177.664062 486.53125 178.125 C 486.222656 178.585938 485.894531 179.027344 485.542969 179.457031 C 485.195312 179.882812 484.824219 180.292969 484.433594 180.683594 C 484.042969 181.074219 483.632812 181.445312 483.207031 181.792969 C 482.777344 182.144531 482.335938 182.472656 481.875 182.78125 C 481.414062 183.089844 480.941406 183.371094 480.453125 183.632812 C 479.96875 183.894531 479.46875 184.128906 478.957031 184.339844 C 478.445312 184.550781 477.925781 184.738281 477.398438 184.898438 C 476.871094 185.058594 476.335938 185.191406 475.792969 185.300781 C 475.25 185.410156 474.703125 185.488281 474.152344 185.542969 C 473.605469 185.597656 473.050781 185.625 472.5 185.625 C 471.949219 185.625 471.394531 185.597656 470.847656 185.542969 C 470.296875 185.488281 469.75 185.410156 469.207031 185.300781 C 468.664062 185.191406 468.128906 185.058594 467.601562 184.898438 C 467.074219 184.738281 466.550781 184.550781 466.042969 184.339844 C 465.53125 184.128906 465.03125 183.894531 464.546875 183.632812 C 464.058594 183.371094 463.585938 183.089844 463.125 182.78125 C 462.664062 182.472656 462.222656 182.144531 461.792969 181.792969 C 461.367188 181.445312 460.957031 181.074219 460.566406 180.683594 C 460.175781 180.292969 459.804688 179.882812 459.457031 179.457031 C 459.105469 179.027344 458.777344 178.585938 458.46875 178.125 C 458.160156 177.664062 457.878906 177.191406 457.617188 176.703125 C 457.355469 176.21875 457.121094 175.71875 456.910156 175.207031 C 456.699219 174.695312 456.511719 174.175781 456.351562 173.648438 C 456.191406 173.121094 456.058594 172.585938 455.949219 172.042969 C 455.839844 171.5 455.761719 170.953125 455.707031 170.402344 C 455.652344 169.855469 455.625 169.300781 455.625 168.75 C 455.625 168.199219 455.652344 167.644531 455.707031 167.097656 C 455.761719 166.546875 455.839844 166 455.949219 165.457031 C 456.058594 164.914062 456.191406 164.378906 456.351562 163.851562 C 456.511719 163.324219 456.699219 162.804688 456.910156 162.292969 C 457.121094 161.78125 457.355469 161.28125 457.617188 160.796875 C 457.878906 160.308594 458.160156 159.835938 458.46875 159.375 C 458.777344 158.914062 459.105469 158.472656 459.457031 158.042969 C 459.804688 157.617188 460.175781 157.207031 460.566406 156.816406 C 460.957031 156.425781 461.367188 156.054688 461.792969 155.707031 C 462.222656 155.355469 462.664062 155.027344 463.125 154.71875 C 463.585938 154.410156 464.058594 154.128906 464.546875 153.867188 C 465.03125 153.605469 465.53125 153.371094 466.042969 153.160156 C 466.550781 152.949219 467.074219 152.761719 467.601562 152.601562 C 468.128906 152.441406 468.664062 152.308594 469.207031 152.199219 C 469.75 152.089844 470.296875 152.011719 470.847656 151.957031 C 471.394531 151.902344 471.949219 151.875 472.5 151.875 C 473.050781 151.875 473.605469 151.902344 474.152344 151.957031 C 474.703125 152.011719 475.25 152.089844 475.792969 152.199219 C 476.335938 152.308594 476.871094 152.441406 477.398438 152.601562 C 477.925781 152.761719 478.445312 152.949219 478.957031 153.160156 C 479.46875 153.371094 479.96875 153.605469 480.453125 153.867188 C 480.941406 154.128906 481.414062 154.410156 481.875 154.71875 C 482.335938 155.027344 482.777344 155.355469 483.207031 155.707031 C 483.632812 156.054688 484.042969 156.425781 484.433594 156.816406 C 484.824219 157.207031 485.195312 157.617188 485.542969 158.042969 C 485.894531 158.472656 486.222656 158.914062 486.53125 159.375 C 486.839844 159.835938 487.121094 160.308594 487.382812 160.796875 C 487.644531 161.28125 487.878906 161.78125 488.089844 162.292969 C 488.300781 162.804688 488.488281 163.324219 488.648438 163.851562 C 488.808594 164.378906 488.941406 164.914062 489.050781 165.457031 C 489.160156 166 489.238281 166.546875 489.292969 167.097656 C 489.347656 167.644531 489.375 168.199219 489.375 168.75 Z M 489.375 168.75 "/>
<path style=" stroke:none;fill-rule:nonzero;fill:rgb(69.018555%,74.508667%,77.249146%);fill-opacity:1;" d="M 303.75 658.125 C 303.75 658.675781 303.722656 659.230469 303.667969 659.777344 C 303.613281 660.328125 303.535156 660.875 303.425781 661.417969 C 303.316406 661.960938 303.183594 662.496094 303.023438 663.023438 C 302.863281 663.550781 302.675781 664.070312 302.464844 664.582031 C 302.253906 665.09375 302.019531 665.59375 301.757812 666.078125 C 301.496094 666.566406 301.214844 667.039062 300.90625 667.5 C 300.597656 667.960938 300.269531 668.402344 299.917969 668.832031 C 299.570312 669.257812 299.199219 669.667969 298.808594 670.058594 C 298.417969 670.449219 298.007812 670.820312 297.582031 671.167969 C 297.152344 671.519531 296.710938 671.847656 296.25 672.15625 C 295.789062 672.464844 295.316406 672.746094 294.828125 673.007812 C 294.34375 673.269531 293.84375 673.503906 293.332031 673.714844 C 292.820312 673.925781 292.300781 674.113281 291.773438 674.273438 C 291.246094 674.433594 290.710938 674.566406 290.167969 674.675781 C 289.625 674.785156 289.078125 674.863281 288.527344 674.917969 C 287.980469 674.972656 287.425781 675 286.875 675 C 286.324219 675 285.769531 674.972656 285.222656 674.917969 C 284.671875 674.863281 284.125 674.785156 283.582031 674.675781 C 283.039062 674.566406 282.503906 674.433594 281.976562 674.273438 C 281.449219 674.113281 280.929688 673.925781 280.417969 673.714844 C 279.90625 673.503906 279.40625 673.269531 278.921875 673.007812 C 278.433594 672.746094 277.960938 672.464844 277.5 672.15625 C 277.039062 671.847656 276.597656 671.519531 276.167969 671.167969 C 275.742188 670.820312 275.332031 670.449219 274.941406 670.058594 C 274.550781 669.667969 274.179688 669.257812 273.832031 668.832031 C 273.480469 668.402344 273.152344 667.960938 272.84375 667.5 C 272.535156 667.039062 272.253906 666.566406 271.992188 666.078125 C 271.730469 665.59375 271.496094 665.09375 271.285156 664.582031 C 271.074219 664.070312 270.886719 663.550781 270.726562 663.023438 C 270.566406 662.496094 270.433594 661.960938 270.324219 661.417969 C 270.214844 660.875 270.136719 660.328125 270.082031 659.777344 C 270.027344 659.230469 270 658.675781 270 658.125 C 270 657.574219 270.027344 657.019531 270.082031 656.472656 C 270.136719 655.921875 270.214844 655.375 270.324219 654.832031 C 270.433594 654.289062 270.566406 653.753906 270.726562 653.226562 C 270.886719 652.699219 271.074219 652.179688 271.285156 651.667969 C 271.496094 651.15625 271.730469 650.65625 271.992188 650.171875 C 272.253906 649.683594 272.535156 649.210938 272.84375 648.75 C 273.152344 648.289062 273.480469 647.847656 273.832031 647.417969 C 274.179688 646.992188 274.550781 646.582031 274.941406 646.191406 C 275.332031 645.800781 275.742188 645.429688 276.167969 645.082031 C 276.597656 644.730469 277.039062 644.402344 277.5 644.09375 C 277.960938 643.785156 278.433594 643.503906 278.921875 643.242188 C 279.40625 642.980469 279.90625 642.746094 280.417969 642.535156 C 280.929688 642.324219 281.449219 642.136719 281.976562 641.976562 C 282.503906 641.816406 283.039062 641.683594 283.582031 641.574219 C 284.125 641.464844 284.671875 641.386719 285.222656 641.332031 C 285.769531 641.277344 286.324219 641.25 286.875 641.25 C 287.425781 641.25 287.980469 641.277344 288.527344 641.332031 C 289.078125 641.386719 289.625 641.464844 290.167969 641.574219 C 290.710938 641.683594 291.246094 641.816406 291.773438 641.976562 C 292.300781 642.136719 292.820312 642.324219 293.332031 642.535156 C 293.84375 642.746094 294.34375 642.980469 294.828125 643.242188 C 295.316406 643.503906 295.789062 643.785156 296.25 644.09375 C 296.710938 644.402344 297.152344 644.730469 297.582031 645.082031 C 298.007812 645.429688 298.417969 645.800781 298.808594 646.191406 C 299.199219 646.582031 299.570312 646.992188 299.917969 647.417969 C 300.269531 647.847656 300.597656 648.289062 300.90625 648.75 C 301.214844 649.210938 301.496094 649.683594 301.757812 650.171875 C 302.019531 650.65625 302.253906 651.15625 302.464844 651.667969 C 302.675781 652.179688 302.863281 652.699219 303.023438 653.226562 C 303.183594 653.753906 303.316406 654.289062 303.425781 654.832031 C 303.535156 655.375 303.613281 655.921875 303.667969 656.472656 C 303.722656 657.019531 303.75 657.574219 303.75 658.125 Z M 303.75 658.125 "/>
<path style=" stroke:none;fill-rule:nonzero;fill:rgb(69.018555%,74.508667%,77.249146%);fill-opacity:1;" d="M 523.125 708.75 C 523.125 709.300781 523.097656 709.855469 523.042969 710.402344 C 522.988281 710.953125 522.910156 711.5 522.800781 712.042969 C 522.691406 712.585938 522.558594 713.121094 522.398438 713.648438 C 522.238281 714.175781 522.050781 714.695312 521.839844 715.207031 C 521.628906 715.71875 521.394531 716.21875 521.132812 716.703125 C 520.871094 717.191406 520.589844 717.664062 520.28125 718.125 C 519.972656 718.585938 519.644531 719.027344 519.292969 719.457031 C 518.945312 719.882812 518.574219 720.292969 518.183594 720.683594 C 517.792969 721.074219 517.382812 721.445312 516.957031 721.792969 C 516.527344 722.144531 516.085938 722.472656 515.625 722.78125 C 515.164062 723.089844 514.691406 723.371094 514.203125 723.632812 C 513.71875 723.894531 513.21875 724.128906 512.707031 724.339844 C 512.195312 724.550781 511.675781 724.738281 511.148438 724.898438 C 510.621094 725.058594 510.085938 725.191406 509.542969 725.300781 C 509 725.410156 508.453125 725.488281 507.902344 725.542969 C 507.355469 725.597656 506.800781 725.625 506.25 725.625 C 505.699219 725.625 505.144531 725.597656 504.597656 725.542969 C 504.046875 725.488281 503.5 725.410156 502.957031 725.300781 C 502.414062 725.191406 501.878906 725.058594 501.351562 724.898438 C 500.824219 724.738281 500.304688 724.550781 499.792969 724.339844 C 499.28125 724.128906 498.78125 723.894531 498.296875 723.632812 C 497.808594 723.371094 497.335938 723.089844 496.875 722.78125 C 496.414062 722.472656 495.972656 722.144531 495.542969 721.792969 C 495.117188 721.445312 494.707031 721.074219 494.316406 720.683594 C 493.925781 720.292969 493.554688 719.882812 493.207031 719.457031 C 492.855469 719.027344 492.527344 718.585938 492.21875 718.125 C 491.910156 717.664062 491.628906 717.191406 491.367188 716.703125 C 491.105469 716.21875 490.871094 715.71875 490.660156 715.207031 C 490.449219 714.695312 490.261719 714.175781 490.101562 713.648438 C 489.941406 713.121094 489.808594 712.585938 489.699219 712.042969 C 489.589844 711.5 489.511719 710.953125 489.457031 710.402344 C 489.402344 709.855469 489.375 709.300781 489.375 708.75 C 489.375 708.199219 489.402344 707.644531 489.457031 707.097656 C 489.511719 706.546875 489.589844 706 489.699219 705.457031 C 489.808594 704.914062 489.941406 704.378906 490.101562 703.851562 C 490.261719 703.324219 490.449219 702.804688 490.660156 702.292969 C 490.871094 701.78125 491.105469 701.28125 491.367188 700.796875 C 491.628906 700.308594 491.910156 699.835938 492.21875 699.375 C 492.527344 698.914062 492.855469 698.472656 493.207031 698.042969 C 493.554688 697.617188 493.925781 697.207031 494.316406 696.816406 C 494.707031 696.425781 495.117188 696.054688 495.542969 695.707031 C 495.972656 695.355469 496.414062 695.027344 496.875 694.71875 C 497.335938 694.410156 497.808594 694.128906 498.296875 693.867188 C 498.78125 693.605469 499.28125 693.371094 499.792969 693.160156 C 500.304688 692.949219 500.824219 692.761719 501.351562 692.601562 C 501.878906 692.441406 502.414062 692.308594 502.957031 692.199219 C 503.5 692.089844 504.046875 692.011719 504.597656 691.957031 C 505.144531 691.902344 505.699219 691.875 506.25 691.875 C 506.800781 691.875 507.355469 691.902344 507.902344 691.957031 C 508.453125 692.011719 509 692.089844 509.542969 692.199219 C 510.085938 692.308594 510.621094 692.441406 511.148438 692.601562 C 511.675781 692.761719 512.195312 692.949219 512.707031 693.160156 C 513.21875 693.371094 513.71875 693.605469 514.203125 693.867188 C 514.691406 694.128906 515.164062 694.410156 515.625 694.71875 C 516.085938 695.027344 516.527344 695.355469 516.957031 695.707031 C 517.382812 696.054688 517.792969 696.425781 518.183594 696.816406 C 518.574219 697.207031 518.945312 697.617188 519.292969 698.042969 C 519.644531 698.472656 519.972656 698.914062 520.28125 699.375 C 520.589844 699.835938 520.871094 700.308594 521.132812 700.796875 C 521.394531 701.28125 521.628906 701.78125 521.839844 702.292969 C 522.050781 702.804688 522.238281 703.324219 522.398438 703.851562 C 522.558594 704.378906 522.691406 704.914062 522.800781 705.457031 C 522.910156 706 522.988281 706.546875 523.042969 707.097656 C 523.097656 707.644531 523.125 708.199219 523.125 708.75 Z M 523.125 708.75 "/>
<path style=" stroke:none;fill-rule:nonzero;fill:rgb(69.018555%,74.508667%,77.249146%);fill-opacity:1;" d="M 320.625 708.75 C 320.625 709.300781 320.597656 709.855469 320.542969 710.402344 C 320.488281 710.953125 320.410156 711.5 320.300781 712.042969 C 320.191406 712.585938 320.058594 713.121094 319.898438 713.648438 C 319.738281 714.175781 319.550781 714.695312 319.339844 715.207031 C 319.128906 715.71875 318.894531 716.21875 318.632812 716.703125 C 318.371094 717.191406 318.089844 717.664062 317.78125 718.125 C 317.472656 718.585938 317.144531 719.027344 316.792969 719.457031 C 316.445312 719.882812 316.074219 720.292969 315.683594 720.683594 C 315.292969 721.074219 314.882812 721.445312 314.457031 721.792969 C 314.027344 722.144531 313.585938 722.472656 313.125 722.78125 C 312.664062 723.089844 312.191406 723.371094 311.703125 723.632812 C 311.21875 723.894531 310.71875 724.128906 310.207031 724.339844 C 309.695312 724.550781 309.175781 724.738281 308.648438 724.898438 C 308.121094 725.058594 307.585938 725.191406 307.042969 725.300781 C 306.5 725.410156 305.953125 725.488281 305.402344 725.542969 C 304.855469 725.597656 304.300781 725.625 303.75 725.625 C 303.199219 725.625 302.644531 725.597656 302.097656 725.542969 C 301.546875 725.488281 301 725.410156 300.457031 725.300781 C 299.914062 725.191406 299.378906 725.058594 298.851562 724.898438 C 298.324219 724.738281 297.804688 724.550781 297.292969 724.339844 C 296.78125 724.128906 296.28125 723.894531 295.796875 723.632812 C 295.308594 723.371094 294.835938 723.089844 294.375 722.78125 C 293.914062 722.472656 293.472656 722.144531 293.042969 721.792969 C 292.617188 721.445312 292.207031 721.074219 291.816406 720.683594 C 291.425781 720.292969 291.054688 719.882812 290.707031 719.457031 C 290.355469 719.027344 290.027344 718.585938 289.71875 718.125 C 289.410156 717.664062 289.128906 717.191406 288.867188 716.703125 C 288.605469 716.21875 288.371094 715.71875 288.160156 715.207031 C 287.949219 714.695312 287.761719 714.175781 287.601562 713.648438 C 287.441406 713.121094 287.308594 712.585938 287.199219 712.042969 C 287.089844 711.5 287.011719 710.953125 286.957031 710.402344 C 286.902344 709.855469 286.875 709.300781 286.875 708.75 C 286.875 708.199219 286.902344 707.644531 286.957031 707.097656 C 287.011719 706.546875 287.089844 706 287.199219 705.457031 C 287.308594 704.914062 287.441406 704.378906 287.601562 703.851562 C 287.761719 703.324219 287.949219 702.804688 288.160156 702.292969 C 288.371094 701.78125 288.605469 701.28125 288.867188 700.796875 C 289.128906 700.308594 289.410156 699.835938 289.71875 699.375 C 290.027344 698.914062 290.355469 698.472656 290.707031 698.042969 C 291.054688 697.617188 291.425781 697.207031 291.816406 696.816406 C 292.207031 696.425781 292.617188 696.054688 293.042969 695.707031 C 293.472656 695.355469 293.914062 695.027344 294.375 694.71875 C 294.835938 694.410156 295.308594 694.128906 295.796875 693.867188 C 296.28125 693.605469 296.78125 693.371094 297.292969 693.160156 C 297.804688 692.949219 298.324219 692.761719 298.851562 692.601562 C 299.378906 692.441406 299.914062 692.308594 300.457031 692.199219 C 301 692.089844 301.546875 692.011719 302.097656 691.957031 C 302.644531 691.902344 303.199219 691.875 303.75 691.875 C 304.300781 691.875 304.855469 691.902344 305.402344 691.957031 C 305.953125 692.011719 306.5 692.089844 307.042969 692.199219 C 307.585938 692.308594 308.121094 692.441406 308.648438 692.601562 C 309.175781 692.761719 309.695312 692.949219 310.207031 693.160156 C 310.71875 693.371094 311.21875 693.605469 311.703125 693.867188 C 312.191406 694.128906 312.664062 694.410156 313.125 694.71875 C 313.585938 695.027344 314.027344 695.355469 314.457031 695.707031 C 314.882812 696.054688 315.292969 696.425781 315.683594 696.816406 C 316.074219 697.207031 316.445312 697.617188 316.792969 698.042969 C 317.144531 698.472656 317.472656 698.914062 317.78125 699.375 C 318.089844 699.835938 318.371094 700.308594 318.632812 700.796875 C 318.894531 701.28125 319.128906 701.78125 319.339844 702.292969 C 319.550781 702.804688 319.738281 703.324219 319.898438 703.851562 C 320.058594 704.378906 320.191406 704.914062 320.300781 705.457031 C 320.410156 706 320.488281 706.546875 320.542969 707.097656 C 320.597656 707.644531 320.625 708.199219 320.625 708.75 Z M 320.625 708.75 "/>
<path style=" stroke:none;fill-rule:nonzero;fill:rgb(81.17981%,84.709167%,86.268616%);fill-opacity:1;" d="M 294.839844 417.519531 L 67.5 523.125 L 67.5 573.75 L 151.875 573.75 L 151.875 556.875 L 322.058594 479.285156 Z M 294.839844 417.519531 "/>
<path style=" stroke:none;fill-rule:nonzero;fill:rgb(69.018555%,74.508667%,77.249146%);fill-opacity:1;" d="M 135 641.25 L 84.375 641.25 L 67.5 573.75 L 151.875 573.75 Z M 135 641.25 "/>
<path style=" stroke:none;fill-rule:nonzero;fill:rgb(47.059631%,56.469727%,61.178589%);fill-opacity:1;" d="M 489.375 337.5 C 489.375 338.882812 489.339844 340.261719 489.273438 341.640625 C 489.207031 343.019531 489.105469 344.394531 488.96875 345.769531 C 488.832031 347.144531 488.664062 348.515625 488.460938 349.878906 C 488.257812 351.246094 488.023438 352.605469 487.753906 353.960938 C 487.484375 355.316406 487.183594 356.660156 486.847656 358 C 486.511719 359.339844 486.144531 360.671875 485.742188 361.992188 C 485.339844 363.3125 484.90625 364.625 484.441406 365.925781 C 483.976562 367.226562 483.480469 368.511719 482.953125 369.789062 C 482.421875 371.066406 481.863281 372.328125 481.273438 373.574219 C 480.683594 374.824219 480.0625 376.054688 479.410156 377.273438 C 478.761719 378.492188 478.082031 379.691406 477.371094 380.878906 C 476.660156 382.0625 475.921875 383.226562 475.15625 384.375 C 474.386719 385.523438 473.59375 386.652344 472.769531 387.761719 C 471.949219 388.871094 471.097656 389.960938 470.222656 391.027344 C 469.347656 392.09375 468.445312 393.140625 467.519531 394.164062 C 466.589844 395.1875 465.636719 396.1875 464.660156 397.160156 C 463.6875 398.136719 462.6875 399.089844 461.664062 400.019531 C 460.640625 400.945312 459.59375 401.847656 458.527344 402.722656 C 457.460938 403.597656 456.371094 404.449219 455.261719 405.269531 C 454.152344 406.09375 453.023438 406.886719 451.875 407.65625 C 450.726562 408.421875 449.5625 409.160156 448.378906 409.871094 C 447.191406 410.582031 445.992188 411.261719 444.773438 411.910156 C 443.554688 412.5625 442.324219 413.183594 441.074219 413.773438 C 439.828125 414.363281 438.566406 414.925781 437.289062 415.453125 C 436.011719 415.980469 434.726562 416.476562 433.425781 416.941406 C 432.125 417.40625 430.8125 417.839844 429.492188 418.242188 C 428.171875 418.644531 426.839844 419.011719 425.5 419.347656 C 424.160156 419.683594 422.816406 419.984375 421.460938 420.253906 C 420.105469 420.523438 418.746094 420.757812 417.378906 420.960938 C 416.015625 421.164062 414.644531 421.332031 413.269531 421.46875 C 411.894531 421.605469 410.519531 421.707031 409.140625 421.773438 C 407.761719 421.839844 406.378906 421.875 405 421.875 C 403.617188 421.875 402.238281 421.839844 400.859375 421.773438 C 399.480469 421.707031 398.105469 421.605469 396.730469 421.46875 C 395.355469 421.332031 393.984375 421.164062 392.621094 420.960938 C 391.253906 420.757812 389.894531 420.523438 388.539062 420.253906 C 387.183594 419.984375 385.839844 419.683594 384.5 419.347656 C 383.160156 419.011719 381.828125 418.644531 380.507812 418.242188 C 379.1875 417.839844 377.875 417.40625 376.574219 416.941406 C 375.273438 416.476562 373.988281 415.980469 372.710938 415.453125 C 371.433594 414.921875 370.171875 414.363281 368.925781 413.773438 C 367.675781 413.183594 366.445312 412.5625 365.226562 411.910156 C 364.007812 411.261719 362.808594 410.582031 361.621094 409.871094 C 360.4375 409.160156 359.273438 408.421875 358.125 407.65625 C 356.976562 406.886719 355.847656 406.09375 354.738281 405.269531 C 353.628906 404.449219 352.539062 403.597656 351.472656 402.722656 C 350.40625 401.847656 349.359375 400.945312 348.335938 400.019531 C 347.3125 399.089844 346.3125 398.136719 345.335938 397.160156 C 344.363281 396.1875 343.410156 395.1875 342.480469 394.164062 C 341.554688 393.140625 340.652344 392.09375 339.777344 391.027344 C 338.902344 389.960938 338.050781 388.871094 337.230469 387.761719 C 336.40625 386.652344 335.613281 385.523438 334.84375 384.375 C 334.078125 383.226562 333.339844 382.0625 332.628906 380.878906 C 331.917969 379.691406 331.238281 378.492188 330.585938 377.273438 C 329.9375 376.054688 329.316406 374.824219 328.726562 373.574219 C 328.136719 372.328125 327.574219 371.066406 327.046875 369.789062 C 326.519531 368.511719 326.023438 367.226562 325.558594 365.925781 C 325.09375 364.625 324.660156 363.3125 324.257812 361.992188 C 323.855469 360.671875 323.488281 359.339844 323.152344 358 C 322.816406 356.660156 322.515625 355.316406 322.246094 353.960938 C 321.976562 352.605469 321.742188 351.246094 321.539062 349.878906 C 321.335938 348.515625 321.167969 347.144531 321.03125 345.769531 C 320.894531 344.394531 320.792969 343.019531 320.726562 341.640625 C 320.660156 340.261719 320.625 338.882812 320.625 337.5 C 320.625 336.117188 320.660156 334.738281 320.726562 333.359375 C 320.792969 331.980469 320.894531 330.605469 321.03125 329.230469 C 321.167969 327.855469 321.335938 326.484375 321.539062 325.121094 C 321.742188 323.753906 321.976562 322.394531 322.246094 321.039062 C 322.515625 319.683594 322.816406 318.339844 323.152344 317 C 323.488281 315.660156 323.855469 314.328125 324.257812 313.007812 C 324.660156 311.6875 325.09375 310.375 325.558594 309.074219 C 326.023438 307.773438 326.519531 306.488281 327.046875 305.210938 C 327.574219 303.933594 328.136719 302.671875 328.726562 301.425781 C 329.316406 300.175781 329.9375 298.945312 330.585938 297.726562 C 331.238281 296.507812 331.917969 295.308594 332.628906 294.121094 C 333.339844 292.9375 334.078125 291.773438 334.84375 290.625 C 335.613281 289.476562 336.40625 288.347656 337.230469 287.238281 C 338.050781 286.128906 338.902344 285.039062 339.777344 283.972656 C 340.652344 282.90625 341.554688 281.859375 342.480469 280.835938 C 343.410156 279.8125 344.363281 278.8125 345.335938 277.835938 C 346.3125 276.863281 347.3125 275.910156 348.335938 274.980469 C 349.359375 274.054688 350.40625 273.152344 351.472656 272.277344 C 352.539062 271.402344 353.628906 270.550781 354.738281 269.730469 C 355.847656 268.90625 356.976562 268.113281 358.125 267.34375 C 359.273438 266.578125 360.4375 265.839844 361.621094 265.128906 C 362.808594 264.417969 364.007812 263.738281 365.226562 263.085938 C 366.445312 262.4375 367.675781 261.816406 368.925781 261.226562 C 370.171875 260.636719 371.433594 260.074219 372.710938 259.546875 C 373.988281 259.019531 375.273438 258.523438 376.574219 258.058594 C 377.875 257.59375 379.1875 257.160156 380.507812 256.757812 C 381.828125 256.355469 383.160156 255.988281 384.5 255.652344 C 385.839844 255.316406 387.183594 255.015625 388.539062 254.746094 C 389.894531 254.476562 391.253906 254.242188 392.621094 254.039062 C 393.984375 253.835938 395.355469 253.667969 396.730469 253.53125 C 398.105469 253.394531 399.480469 253.292969 400.859375 253.226562 C 402.238281 253.160156 403.617188 253.125 405 253.125 C 406.378906 253.125 407.761719 253.160156 409.140625 253.226562 C 410.519531 253.292969 411.894531 253.394531 413.269531 253.53125 C 414.644531 253.667969 416.015625 253.835938 417.378906 254.039062 C 418.746094 254.242188 420.105469 254.476562 421.460938 254.746094 C 422.816406 255.015625 424.160156 255.316406 425.5 255.652344 C 426.839844 255.988281 428.171875 256.355469 429.492188 256.757812 C 430.8125 257.160156 432.125 257.59375 433.425781 258.058594 C 434.726562 258.523438 436.011719 259.019531 437.289062 259.546875 C 438.566406 260.074219 439.828125 260.636719 441.074219 261.226562 C 442.324219 261.816406 443.554688 262.4375 444.773438 263.085938 C 445.992188 263.738281 447.191406 264.417969 448.378906 265.128906 C 449.5625 265.839844 450.726562 266.578125 451.875 267.34375 C 453.023438 268.113281 454.152344 268.90625 455.261719 269.730469 C 456.371094 270.550781 457.460938 271.402344 458.527344 272.277344 C 459.59375 273.152344 460.640625 274.054688 461.664062 274.980469 C 462.6875 275.910156 463.6875 276.863281 464.660156 277.835938 C 465.636719 278.8125 466.589844 279.8125 467.519531 280.835938 C 468.445312 281.859375 469.347656 282.90625 470.222656 283.972656 C 471.097656 285.039062 471.949219 286.128906 472.769531 287.238281 C 473.59375 288.347656 474.386719 289.476562 475.15625 290.625 C 475.921875 291.773438 476.660156 292.9375 477.371094 294.121094 C 478.082031 295.308594 478.761719 296.507812 479.410156 297.726562 C 480.0625 298.945312 480.683594 300.175781 481.273438 301.425781 C 481.863281 302.671875 482.421875 303.933594 482.953125 305.210938 C 483.480469 306.488281 483.976562 307.773438 484.441406 309.074219 C 484.90625 310.375 485.339844 311.6875 485.742188 313.007812 C 486.144531 314.328125 486.511719 315.660156 486.847656 317 C 487.183594 318.339844 487.484375 319.683594 487.753906 321.039062 C 488.023438 322.394531 488.257812 323.753906 488.460938 325.121094 C 488.664062 326.484375 488.832031 327.855469 488.96875 329.230469 C 489.105469 330.605469 489.207031 331.980469 489.273438 333.359375 C 489.339844 334.738281 489.375 336.117188 489.375 337.5 Z M 489.375 337.5 "/>
<path style=" stroke:none;fill-rule:nonzero;fill:rgb(69.018555%,74.508667%,77.249146%);fill-opacity:1;" d="M 438.75 354.375 C 438.75 355.480469 438.695312 356.582031 438.585938 357.683594 C 438.480469 358.78125 438.316406 359.875 438.101562 360.960938 C 437.886719 362.042969 437.617188 363.113281 437.296875 364.171875 C 436.976562 365.230469 436.605469 366.269531 436.179688 367.289062 C 435.757812 368.3125 435.285156 369.308594 434.765625 370.285156 C 434.242188 371.257812 433.675781 372.207031 433.0625 373.125 C 432.449219 374.042969 431.789062 374.929688 431.089844 375.785156 C 430.386719 376.640625 429.644531 377.457031 428.863281 378.238281 C 428.082031 379.023438 427.265625 379.761719 426.410156 380.464844 C 425.554688 381.164062 424.667969 381.824219 423.75 382.4375 C 422.832031 383.050781 421.882812 383.617188 420.910156 384.140625 C 419.933594 384.660156 418.9375 385.132812 417.914062 385.554688 C 416.894531 385.980469 415.855469 386.351562 414.796875 386.671875 C 413.738281 386.992188 412.667969 387.261719 411.585938 387.476562 C 410.5 387.691406 409.40625 387.855469 408.308594 387.960938 C 407.207031 388.070312 406.105469 388.125 405 388.125 C 403.894531 388.125 402.792969 388.070312 401.691406 387.960938 C 400.59375 387.855469 399.5 387.691406 398.414062 387.476562 C 397.332031 387.261719 396.261719 386.992188 395.203125 386.671875 C 394.144531 386.351562 393.105469 385.980469 392.085938 385.554688 C 391.0625 385.132812 390.066406 384.660156 389.089844 384.140625 C 388.117188 383.617188 387.167969 383.050781 386.25 382.4375 C 385.332031 381.824219 384.445312 381.164062 383.589844 380.464844 C 382.734375 379.761719 381.917969 379.023438 381.136719 378.238281 C 380.355469 377.457031 379.613281 376.640625 378.910156 375.785156 C 378.210938 374.929688 377.550781 374.042969 376.9375 373.125 C 376.324219 372.207031 375.757812 371.257812 375.234375 370.285156 C 374.714844 369.308594 374.242188 368.3125 373.820312 367.289062 C 373.394531 366.269531 373.023438 365.230469 372.703125 364.171875 C 372.382812 363.113281 372.113281 362.042969 371.898438 360.960938 C 371.683594 359.875 371.519531 358.78125 371.414062 357.683594 C 371.304688 356.582031 371.25 355.480469 371.25 354.375 C 371.25 353.269531 371.304688 352.167969 371.414062 351.066406 C 371.519531 349.96875 371.683594 348.875 371.898438 347.789062 C 372.113281 346.707031 372.382812 345.636719 372.703125 344.578125 C 373.023438 343.519531 373.394531 342.480469 373.820312 341.460938 C 374.242188 340.4375 374.714844 339.441406 375.234375 338.464844 C 375.757812 337.492188 376.324219 336.542969 376.9375 335.625 C 377.550781 334.707031 378.210938 333.820312 378.910156 332.964844 C 379.613281 332.109375 380.355469 331.292969 381.136719 330.511719 C 381.917969 329.730469 382.734375 328.988281 383.589844 328.285156 C 384.445312 327.585938 385.332031 326.925781 386.25 326.3125 C 387.167969 325.699219 388.117188 325.132812 389.089844 324.609375 C 390.066406 324.089844 391.0625 323.617188 392.085938 323.195312 C 393.105469 322.769531 394.144531 322.398438 395.203125 322.078125 C 396.261719 321.757812 397.332031 321.488281 398.414062 321.273438 C 399.5 321.058594 400.59375 320.894531 401.691406 320.789062 C 402.792969 320.679688 403.894531 320.625 405 320.625 C 406.105469 320.625 407.207031 320.679688 408.308594 320.789062 C 409.40625 320.894531 410.5 321.058594 411.585938 321.273438 C 412.667969 321.488281 413.738281 321.757812 414.796875 322.078125 C 415.855469 322.398438 416.894531 322.769531 417.914062 323.195312 C 418.9375 323.617188 419.933594 324.089844 420.910156 324.609375 C 421.882812 325.132812 422.832031 325.699219 423.75 326.3125 C 424.667969 326.925781 425.554688 327.585938 426.410156 328.285156 C 427.265625 328.988281 428.082031 329.730469 428.863281 330.511719 C 429.644531 331.292969 430.386719 332.109375 431.089844 332.964844 C 431.789062 333.820312 432.449219 334.707031 433.0625 335.625 C 433.675781 336.542969 434.242188 337.492188 434.765625 338.464844 C 435.285156 339.441406 435.757812 340.4375 436.179688 341.460938 C 436.605469 342.480469 436.976562 343.519531 437.296875 344.578125 C 437.617188 345.636719 437.886719 346.707031 438.101562 347.789062 C 438.316406 348.875 438.480469 349.96875 438.585938 351.066406 C 438.695312 352.167969 438.75 353.269531 438.75 354.375 Z M 438.75 354.375 "/>
<path style=" stroke:none;fill-rule:nonzero;fill:rgb(81.17981%,84.709167%,86.268616%);fill-opacity:1;" d="M 505.21875 441.214844 L 493.289062 500.882812 L 576.820312 417.351562 L 517.152344 429.28125 Z M 505.21875 441.214844 "/>
</g>
</svg>
